<svg width="1200" height="630" viewBox="0 0 1200 630" xmlns="http://www.w3.org/2000/svg">
  <!-- Background green color -->
  <rect width="1200" height="630" fill="#0e8845"/>
  
  <!-- Grid lines -->
  <defs>
    <pattern id="grid" width="30" height="30" patternUnits="userSpaceOnUse">
      <path d="M 30 0 L 0 0 0 30" fill="none" stroke="#095D2F" stroke-width="1"/>
    </pattern>
  </defs>
  <rect width="1200" height="630" fill="url(#grid)"/>
  
  <!-- Moves Banner -->
  <g transform="translate(25, 0)">
    <path d="M 0 0 L 94 0 L 94 140 L 89.3 140 L 47 112 L 4.7 140 L 0 140 Z" fill="#06b356"/>
    <g transform="translate(47, 70)">
      <text x="0" y="-10" text-anchor="middle" fill="#05813B" font-family="Arial, sans-serif" font-size="20" font-weight="bold">Moves</text>
      <text x="0" y="27" text-anchor="middle" fill="#006622" font-family="Arial, sans-serif" font-size="32" font-weight="bold">167</text>
    </g>
  </g>
  
  <!-- Top Row -->
  <g transform="translate(170, 120)">
    <!-- Stack 1 -->
    <rect x="0" y="0" width="112" height="160" fill="#096334" rx="8"/>
    <g transform="translate(16, 45)">
    <image
      width="80"
      height="80"
      href="https://topic-solitaire.vercel.app/crown.png"
      />
      </g>
    
    <!-- Stack 2 -->
    <rect x="140" y="0" width="112" height="160" fill="#096334" rx="8"/>
    <g transform="translate(157, 45)">
    <image
      width="80"
      height="80"
      href="https://topic-solitaire.vercel.app/crown.png"
      />
      </g>
    
    <!-- Stack 3 -->
    <rect x="280" y="0" width="112" height="160" fill="#096334" rx="8"/>
    <g transform="translate(297, 45)">
    <image
      width="80"
      height="80"
      href="https://topic-solitaire.vercel.app/crown.png"
      />
      </g>
    
    <!-- Stack 4 -->
    <rect x="420" y="0" width="112" height="160" fill="#096334" rx="8"/>
    <g transform="translate(436, 45)">
    <image
      width="80"
      height="80"
      href="https://topic-solitaire.vercel.app/crown.png"
      />
      </g>
  </g>

  <!-- Drawn Cards -->
  <g transform="translate(845, 120)">
    <rect x="0" y="0" width="112" height="160" fill="url(#cardBack)" rx="8" stroke="#ffffff" stroke-width="0.5"/>
    <text x="55.5" y="85" text-anchor="middle" fill="#999999" font-family="Arial, sans-serif" font-size="12">Drawn</text>
  </g>
  
  <!-- Deck -->
  <g transform="translate(980, 120)"> 
    <!-- Multiple card layers -->
    <rect x="0" y="4" width="112" height="160" fill="#fffdf8" rx="8" stroke="#ccc" stroke-width="1"/>
    <rect x="0" y="2" width="112" height="160" fill="#fffdf8" rx="8" stroke="#ccc" stroke-width="1"/>
    <rect x="0" y="0" width="112" height="160" fill="#fffdf8" rx="8" stroke="#ccc" stroke-width="1"/>
    <rect x="0" y="-2" width="112" height="160" fill="#fffdf8" rx="8" stroke="#ccc" stroke-width="1"/>
    <rect x="0" y="-4" width="112" height="160" fill="#fffdf8" rx="8" stroke="#ccc" stroke-width="1"/>

    <!-- Card back -->    
    <g transform="translate(5, -14)">
      <image 
        width="102" 
        height="180" 
        href="https://topic-solitaire.vercel.app/cardBack.png" 
      />
    </g>
  </g>
  
  <!-- Bottom Row -->
  <g transform="translate(170, 320)">
    <!-- Stack 1 -->
    <g transform="translate(0, 10)">
      <!-- Back card -->
      <rect x="0" y="-20" width="112" height="160" fill="#fffdf8" rx="8" stroke="#ccc" stroke-width="1"/>
      <g transform="translate(6, -25)">
        <image 
      width="100" 
      height="160" 
      href="https://topic-solitaire.vercel.app/cardBack.png" 
      />
      </g>
      
      <!-- Front card -->
      <rect x="0" y="0" width="112" height="160" fill="#fffdf8" rx="8" stroke="#ccc" stroke-width="1"/>
      <text x="56" y="85" text-anchor="middle" fill="#0E8845" font-family="Arial, sans-serif" font-size="20" font-weight="600">Dog</text>
    </g>
    
    <!-- Stack 2 -->
    <g transform="translate(140, 30)">
      <!-- Back cards -->
      <rect x="0" y="-40" width="112" height="160" fill="#fffdf8" rx="8" stroke="#ccc" stroke-width="1"/>
      <g transform="translate(6, -45)">
        <image 
      width="100" 
      height="160" 
      href="https://topic-solitaire.vercel.app/cardBack.png" 
      />
      </g>
      <rect x="0" y="-20" width="112" height="160" fill="#fffdf8" rx="8" stroke="#ccc" stroke-width="1"/>
      <g transform="translate(6, -25)">
        <image 
      width="100" 
      height="160" 
      href="https://topic-solitaire.vercel.app/cardBack.png" 
      />
      </g>
      
      <!-- Front card topic -->
      <rect x="0" y="0" width="112" height="160" fill="#fffdf8" rx="8" stroke="#FFD700" stroke-width="2"/>
      <text x="56" y="85" text-anchor="middle" fill="#B8860B" font-family="Arial, sans-serif" font-size="20" font-weight="600">Animals</text>
      <!-- Gold crown -->
      <g transform="translate(80, 12)">
        <image 
      width="25" 
      height="25" 
      href="https://topic-solitaire.vercel.app/crownGold.png" 
      />
      </g>
    </g>
    
    <!-- Stack 3 -->
    <g transform="translate(280, 50)">
      <!-- Back cards -->
      <rect x="0" y="-60" width="112" height="160" fill="#fffdf8" rx="8" stroke="#ccc" stroke-width="1"/>
      <g transform="translate(6, -65)">
        <image 
      width="100" 
      height="160" 
      href="https://topic-solitaire.vercel.app/cardBack.png" 
      />
      </g>
      
      <rect x="0" y="-40" width="112" height="160" fill="#fffdf8" rx="8" stroke="#ccc" stroke-width="1"/>
      <g transform="translate(6, -45)">
        <image 
      width="100" 
      height="160" 
      href="https://topic-solitaire.vercel.app/cardBack.png" 
    />
        </g>
      <rect x="0" y="-20" width="112" height="160" fill="#fffdf8" rx="8" stroke="#ccc" stroke-width="1"/>
      <g transform="translate(6, -25)">
        <image 
      width="100" 
      height="160" 
      href="https://topic-solitaire.vercel.app/cardBack.png" 
    />
        </g>
      <!-- Front card -->
      <rect x="0" y="0" width="112" height="160" fill="#fffdf8" rx="8" stroke="#ccc" stroke-width="1"/>
      <text x="56" y="85" text-anchor="middle" fill="#0E8845" font-family="Arial, sans-serif" font-size="20" font-weight="600">Apple</text>
    </g>
    
    <!-- Stack 4 -->
    <g transform="translate(420, 50)">
      <!-- Back cards -->
      <rect x="0" y="-60" width="112" height="160" fill="#fffdf8" rx="8" stroke="#ccc" stroke-width="1"/>
      <g transform="translate(6, -65)">
        <image 
      width="100" 
      height="160" 
      href="https://topic-solitaire.vercel.app/cardBack.png" 
      />
      </g>
      <rect x="0" y="-40" width="112" height="160" fill="#fffdf8" rx="8" stroke="#ccc" stroke-width="1"/>
      <g transform="translate(6, -45)">
        <image 
      width="100" 
      height="160" 
      href="https://topic-solitaire.vercel.app/cardBack.png" 
      />
      </g>
      <rect x="0" y="-20" width="112" height="160" fill="#fffdf8" rx="8" stroke="#ccc" stroke-width="1"/>
      <g transform="translate(6, -25)">
        <image 
      width="100" 
      height="160" 
      href="https://topic-solitaire.vercel.app/cardBack.png" 
      />
      </g>
      <!-- Front card -->
      <rect x="0" y="0" width="112" height="160" fill="#fffdf8" rx="8" stroke="#ccc" stroke-width="1"/>
      <text x="56" y="85" text-anchor="middle" fill="#0E8845" font-family="Arial, sans-serif" font-size="20" font-weight="600">Red</text>
    </g>
  </g>
  
  <!-- Game Title -->
  <g transform="translate(820, 390)">
    <text x="0" y="0" fill="#ffffff" font-family="Arial, sans-serif" font-size="42" font-weight="bold">Topic Solitaire</text>
    <text x="0" y="35" fill="#ffffff" font-family="Arial, sans-serif" font-size="20" opacity="0.8">Strategic Card Matching Game</text>
  </g>
  
  <!-- Call to Action -->
  <g transform="translate(870, 450)">
    <rect x="0" y="0" width="180" height="50" fill="#06b356" rx="12" stroke="#ffffff" stroke-width="2"/>
    <text x="90" y="32" text-anchor="middle" fill="#ffffff" font-family="Arial, sans-serif" font-size="18" font-weight="bold">Play Now!</text>
  </g>
</svg>